<mxfile host="65bd71144e">
    <diagram id="RqdfNW05T5ijHijiX5mr" name="第 1 页">
        <mxGraphModel dx="884" dy="597" grid="1" gridSize="10" guides="1" tooltips="1" connect="1" arrows="1" fold="1" page="1" pageScale="1" pageWidth="827" pageHeight="1169" math="0" shadow="0">
            <root>
                <mxCell id="0"/>
                <mxCell id="1" parent="0"/>
                <mxCell id="2" value="" style="shape=curlyBracket;whiteSpace=wrap;html=1;rounded=1;labelPosition=left;verticalLabelPosition=middle;align=right;verticalAlign=middle;fillColor=#f5f5f5;fontColor=#333333;strokeColor=#666666;direction=north;" vertex="1" parent="1">
                    <mxGeometry x="119" y="160" width="401" height="10" as="geometry"/>
                </mxCell>
                <mxCell id="3" value="64字节" style="text;html=1;strokeColor=none;fillColor=none;align=center;verticalAlign=middle;whiteSpace=wrap;rounded=0;" vertex="1" parent="1">
                    <mxGeometry x="291" y="170" width="60" height="20" as="geometry"/>
                </mxCell>
                <mxCell id="4" value="&lt;font style=&quot;font-size: 10px;&quot; face=&quot;Helvetica&quot;&gt;微码0&lt;/font&gt;" style="rounded=0;whiteSpace=wrap;html=1;fontFamily=mono;fillColor=#f8cecc;strokeColor=#b85450;gradientColor=none;gradientDirection=west;" vertex="1" parent="1">
                    <mxGeometry x="200" y="140" width="31" height="20" as="geometry"/>
                </mxCell>
                <mxCell id="5" value="&lt;font face=&quot;Helvetica&quot;&gt;&lt;span style=&quot;font-size: 10px;&quot;&gt;微码1&lt;/span&gt;&lt;/font&gt;" style="rounded=0;whiteSpace=wrap;html=1;fontFamily=mono;fillColor=#f8cecc;strokeColor=#b85450;gradientColor=none;gradientDirection=west;" vertex="1" parent="1">
                    <mxGeometry x="231" y="140" width="30" height="20" as="geometry"/>
                </mxCell>
                <mxCell id="6" value="&lt;font face=&quot;Helvetica&quot;&gt;&lt;span style=&quot;font-size: 10px;&quot;&gt;...&lt;/span&gt;&lt;/font&gt;" style="rounded=0;whiteSpace=wrap;html=1;fontFamily=mono;fillColor=#f5f5f5;strokeColor=#666666;gradientDirection=west;fontColor=#333333;" vertex="1" parent="1">
                    <mxGeometry x="290" y="140" width="150" height="20" as="geometry"/>
                </mxCell>
                <mxCell id="7" value="&lt;font style=&quot;font-size: 10px;&quot; face=&quot;Helvetica&quot;&gt;立即数1&lt;/font&gt;" style="rounded=0;whiteSpace=wrap;html=1;fontFamily=mono;fillColor=#dae8fc;strokeColor=#6c8ebf;gradientDirection=west;" vertex="1" parent="1">
                    <mxGeometry x="439.5" y="140" width="40" height="20" as="geometry"/>
                </mxCell>
                <mxCell id="8" value="&lt;font style=&quot;font-size: 10px;&quot; face=&quot;Helvetica&quot;&gt;立即数0&lt;/font&gt;" style="rounded=0;whiteSpace=wrap;html=1;fontFamily=mono;fillColor=#dae8fc;strokeColor=#6c8ebf;gradientDirection=west;" vertex="1" parent="1">
                    <mxGeometry x="479.5" y="140" width="40" height="20" as="geometry"/>
                </mxCell>
                <mxCell id="9" value="&lt;font face=&quot;Helvetica&quot;&gt;&lt;span style=&quot;font-size: 10px;&quot;&gt;元信息&lt;/span&gt;&lt;/font&gt;" style="rounded=0;whiteSpace=wrap;html=1;fontFamily=mono;fillColor=#d5e8d4;strokeColor=#82b366;gradientDirection=west;" vertex="1" parent="1">
                    <mxGeometry x="129" y="140" width="71" height="20" as="geometry"/>
                </mxCell>
                <mxCell id="10" value="" style="rounded=0;whiteSpace=wrap;html=1;fontFamily=mono;fillColor=#e1d5e7;strokeColor=#9673a6;gradientDirection=west;" vertex="1" parent="1">
                    <mxGeometry x="119" y="140" width="10" height="20" as="geometry"/>
                </mxCell>
                <mxCell id="11" value="" style="shape=curlyBracket;whiteSpace=wrap;html=1;rounded=1;labelPosition=left;verticalLabelPosition=middle;align=right;verticalAlign=middle;fillColor=#f5f5f5;fontColor=#333333;strokeColor=#666666;direction=south;" vertex="1" parent="1">
                    <mxGeometry x="200" y="130" width="320" height="10" as="geometry"/>
                </mxCell>
                <mxCell id="12" value="" style="shape=curlyBracket;whiteSpace=wrap;html=1;rounded=1;labelPosition=left;verticalLabelPosition=middle;align=right;verticalAlign=middle;fillColor=#f5f5f5;fontColor=#333333;strokeColor=#666666;direction=south;" vertex="1" parent="1">
                    <mxGeometry x="119" y="130" width="81" height="10" as="geometry"/>
                </mxCell>
                <mxCell id="13" value="&lt;font style=&quot;font-size: 10px;&quot;&gt;16字节&lt;/font&gt;" style="text;html=1;strokeColor=none;fillColor=none;align=center;verticalAlign=middle;whiteSpace=wrap;rounded=0;" vertex="1" parent="1">
                    <mxGeometry x="130" y="110" width="60" height="20" as="geometry"/>
                </mxCell>
                <mxCell id="14" value="&lt;font style=&quot;font-size: 10px;&quot;&gt;48字节&lt;/font&gt;" style="text;html=1;strokeColor=none;fillColor=none;align=center;verticalAlign=middle;whiteSpace=wrap;rounded=0;" vertex="1" parent="1">
                    <mxGeometry x="334" y="110" width="60" height="20" as="geometry"/>
                </mxCell>
                <mxCell id="15" value="&lt;font face=&quot;Helvetica&quot;&gt;&lt;span style=&quot;font-size: 10px;&quot;&gt;微码2&lt;/span&gt;&lt;/font&gt;" style="rounded=0;whiteSpace=wrap;html=1;fontFamily=mono;fillColor=#f8cecc;strokeColor=#b85450;gradientColor=none;gradientDirection=west;" vertex="1" parent="1">
                    <mxGeometry x="261" y="140" width="30" height="20" as="geometry"/>
                </mxCell>
            </root>
        </mxGraphModel>
    </diagram>
</mxfile>